<svg width="26" height="34" viewBox="0 0 26 34" fill="none" xmlns="http://www.w3.org/2000/svg">
<path fill-rule="evenodd" clip-rule="evenodd" d="M13.0347 32.0108C13.0347 32.0108 6.65595 25.4427 4.03467 21.5108C2.03467 18.5107 0.770988 16.2062 1.03467 12.5108C1.49663 6.0364 6.54999 0.728548 13.0347 1.01076C19.2435 1.28096 23.6039 6.31096 24.0347 12.5108C24.2914 16.2067 23.0347 18.5107 21.0347 21.5108C18.1752 25.8 13.0347 32.0108 13.0347 32.0108ZM6.03467 12.0107C6.16711 8.69968 9.22096 6.01074 12.5347 6.01074C15.8484 6.01074 18.8966 8.55896 19.0347 12.0107C19.1781 15.5977 16.0347 19.0107 12.5347 19.0107C9.08013 19.0107 5.8966 15.4625 6.03467 12.0107Z" stroke="#FFF0E3" stroke-width="2"/>
</svg>
