<svg width="33" height="26" viewBox="0 0 33 26" fill="none" xmlns="http://www.w3.org/2000/svg">
<path d="M2.68259 26H30.3174C31.7964 26 33 24.5999 33 22.879V3.12104C33 1.40816 31.8071 0.01586 30.3377 0.0026C30.333 0.00234 30.3288 0 30.3243 0H30.3174H2.68259H2.67568C2.67099 0 2.66676 0.00234 2.6623 0.0026C1.19291 0.01586 1.23857e-07 1.40816 1.23857e-07 3.12104V22.879C-0.000445822 24.5999 1.20338 26 2.68259 26ZM2.96264 23.92L12.1043 12.3718L15.9024 16.3719C16.0721 16.5506 16.2857 16.64 16.4996 16.64C16.7136 16.64 16.9272 16.5506 17.0971 16.3719L20.895 12.3718L30.0369 23.92H2.96264ZM30.6033 2.14682C30.9569 2.28696 31.216 2.66422 31.216 3.12078V22.3439L22.2186 10.978L30.6033 2.14682ZM28.0065 2.08L16.4996 14.1983L4.99326 2.08H28.0065ZM1.78334 3.12104C1.78334 2.66448 2.04243 2.28722 2.39607 2.14708L10.7807 10.9782L1.78334 22.3439V3.12104Z" fill="#FFF0E3"/>
</svg>
