<svg width="20" height="26" viewBox="0 0 20 26" fill="none" xmlns="http://www.w3.org/2000/svg">
<path d="M3.26017 0.692425L5.09039 0.150385C6.81374 -0.360004 8.65502 0.464832 9.39303 2.07784L10.5323 4.56792C11.1614 5.94278 10.8299 7.55857 9.70786 8.58662L7.7177 10.41C7.69311 10.4326 7.67292 10.4594 7.65813 10.4891C7.44997 10.9071 7.76541 12.024 8.75719 13.7118C9.87504 15.6142 10.7391 16.367 11.1381 16.2501L13.7506 15.4653C15.2174 15.0247 16.8069 15.5501 17.7044 16.7722L19.3224 18.9756C20.3729 20.406 20.184 22.3793 18.8805 23.5922L17.4889 24.8871C16.506 25.8017 15.1296 26.1856 13.8041 25.9149C9.92602 25.1227 6.45146 22.0543 3.35129 16.7784C0.248064 11.4974 -0.718099 7.00294 0.528295 3.30499C0.951622 2.04902 1.9709 1.07426 3.26017 0.692425ZM3.7375 2.24832C2.96393 2.47742 2.35237 3.06228 2.09837 3.81586C1.02442 7.00218 1.89434 11.0489 4.78364 15.9659C7.67017 20.8782 10.7989 23.6412 14.1407 24.3239C14.936 24.4863 15.7619 24.256 16.3516 23.7072L17.7432 22.4123C18.4451 21.7592 18.5468 20.6966 17.9812 19.9264L16.3631 17.7231C15.8799 17.065 15.024 16.7821 14.2342 17.0194L11.6161 17.8058C10.1671 18.2302 8.80521 17.0436 7.32485 14.5244C6.07163 12.3916 5.63658 10.8512 6.17246 9.77493C6.27602 9.56695 6.41747 9.37937 6.58978 9.22152L8.57988 7.39814C9.18406 6.84457 9.36256 5.97453 9.02384 5.23422L7.88452 2.74414C7.48713 1.8756 6.49568 1.43146 5.56772 1.70628L3.7375 2.24832Z" fill="#FFF0E3"/>
</svg>
